<svg height="512pt" viewBox="0 -2 512.00033 512" width="512pt" xmlns="http://www.w3.org/2000/svg"><path d="m492.660156 249.457031c-25.246094 8.449219-77.535156 38.761719-18.730468 138.082031 1.621093 2.742188-1.363282 5.886719-4.175782 4.394532-29.394531-15.585938-113.070312-49.546875-174.132812 28.117187-9.316406 11.835938-18.097656 26.261719-26.082032 43.734375-1.199218 2.621094-4.988281 2.398438-5.855468-.34375-11.261719-35.527344-64.367188-169.246094-201.746094-70.46875-2.84375 2.046875-6.410156-1.378906-4.457031-4.285156 22.148437-32.902344 46.585937-97.140625-44.335938-152.558594-2.207031-1.339844-1.925781-4.628906.472657-5.59375 9.398437-3.78125 28.015624-12.039062 45.507812-25.394531 33.621094-25.628906 63.027344-70.003906 14.578125-137.246094-1.320313-1.84375 1.203125-3.96875 2.78125-2.390625 79.960937 79.910156 159.984375 94.046875 195.636719-15.121094 1.007812-3.074218 5.433594-2.832031 6.078125.339844 21.324219 105.90625 114.515625 85.722656 205.09375 23.832032 2.894531-1.972657 6.371093 1.5625 4.347656 4.417968-27.644531 38.945313-85.945313 136.992188 4.96875 164.496094 2.921875.886719 2.953125 5.019531.050781 5.988281zm0 0" fill="#f29500"/><g fill="#ffa90b"><path d="m492.660156 249.457031c-25.246094 8.449219-77.535156 38.761719-18.730468 138.082031 1.621093 2.742188-1.363282 5.886719-4.175782 4.394532-29.394531-15.585938-113.070312-49.546875-174.132812 28.117187-13.75-40.515625-67.835938-161.710937-200.414063-66.394531-2.84375 2.046875-6.414062-1.382812-4.457031-4.285156 21.050781-31.269532 44.164062-90.832032-31.625-144.230469 33.621094-25.628906 63.027344-70.003906 14.578125-137.246094-1.320313-1.84375 1.203125-3.96875 2.78125-2.390625 79.65625 79.601563 159.734375 94.8125 195.636719-15.121094 1.007812-3.074218 5.433594-2.832031 6.078125.339844 21.324219 105.90625 114.515625 85.722656 205.09375 23.832032 2.894531-1.972657 6.371093 1.5625 4.347656 4.417968-27.644531 38.945313-85.945313 136.992188 4.96875 164.496094 2.921875.886719 2.953125 5.019531.050781 5.988281zm0 0"/><path d="m224.90625 440.785156-21.335938-3.097656c-1.53125-.226562-2.855468-1.1875-3.539062-2.574219l-9.542969-19.335937c-1.722656-3.492188-6.707031-3.492188-8.433593 0l-9.539063 19.335937c-.6875 1.390625-2.011719 2.351563-3.542969 2.574219l-21.335937 3.097656c-3.859375.5625-5.398438 5.300782-2.605469 8.019532l15.4375 15.050781c1.109375 1.078125 1.613281 2.636719 1.351562 4.160156l-3.644531 21.25c-.65625 3.84375 3.375 6.773437 6.824219 4.957031l19.082031-10.03125c1.371094-.71875 3.007813-.71875 4.378907 0l19.082031 10.03125c3.449219 1.816406 7.480469-1.113281 6.820312-4.957031l-3.640625-21.25c-.261718-1.523437.242188-3.082031 1.351563-4.160156l15.4375-15.050781c2.792969-2.71875 1.253906-7.457032-2.605469-8.019532zm0 0"/><path d="m73.453125 118.996094-16.476563-2.394532c-1.183593-.171874-2.203124-.914062-2.734374-1.984374l-7.367188-14.929688c-1.332031-2.699219-5.179688-2.699219-6.511719 0l-7.367187 14.929688c-.53125 1.070312-1.550782 1.8125-2.734375 1.984374l-16.476563 2.394532c-2.976562.433594-4.164062 4.089844-2.011718 6.191406l11.921874 11.621094c.855469.835937 1.246094 2.035156 1.046876 3.214844l-2.816407 16.40625c-.507812 2.96875 2.605469 5.230468 5.269531 3.828124l14.734376-7.746093c1.058593-.558594 2.320312-.558594 3.378906 0l14.734375 7.746093c2.664062 1.402344 5.777343-.859374 5.269531-3.828124l-2.816406-16.40625c-.199219-1.175782.1875-2.378907 1.046875-3.214844l11.921875-11.621094c2.15625-2.101562.964844-5.757812-2.011719-6.191406zm0 0"/><path d="m372.539062 48.386719c2.15625-2.101563.964844-5.761719-2.011718-6.195313l-16.476563-2.394531c-1.179687-.167969-2.203125-.914063-2.734375-1.984375l-7.367187-14.929688c-1.332031-2.699218-5.179688-2.699218-6.511719 0l-7.367188 14.929688c-.53125 1.070312-1.550781 1.816406-2.734374 1.984375l-16.476563 2.394531c-2.976563.433594-4.164063 4.09375-2.011719 6.195313l11.921875 11.621093c.855469.832032 1.246094 2.035157 1.046875 3.210938l-2.816406 16.410156c-.507812 2.964844 2.605469 5.226563 5.269531 3.828125l14.734375-7.75c1.058594-.554687 2.320313-.554687 3.378906 0l14.734376 7.75c2.664062 1.398438 5.777343-.863281 5.269531-3.828125l-2.816407-16.410156c-.199218-1.175781.191407-2.378906 1.046876-3.210938zm0 0"/></g><path d="m70.492188 328.289062c0 42.167969-35.804688 76.449219-36.160157 76.78125-2.988281 2.808594-3.195312 7.488282-.460937 10.546876 2.730468 3.0625 7.402344 3.382812 10.53125.730468 26.027344-22.089844 50.699218-37.265625 73.332031-45.113281 3.949219-1.367187 6.035156-5.675781 4.667969-9.621094-1.367188-3.945312-5.671875-6.03125-9.621094-4.667969-12.582031 4.363282-25.667969 10.757813-39.160156 19.125 28.316406-57.152343 5.0625-106.082031-49.363282-141.855468 60.230469-27.203125 100.835938-75.160156 77.25-137.105469 72.535157 56.839844 138.457032 56.15625 172.882813-30.742187 12.589844 40.65625 40.4375 67.070312 83.351563 67.070312 30.78125 0 68.207031-13.675781 111.585937-40.726562-14.960937 23.917968-31.46875 56.6875-33.132813 86.875-.226562 4.167968 2.964844 7.734374 7.136719 7.964843 4.164063.238281 7.734375-2.964843 7.964844-7.136719 2.757813-50.109374 53.828125-112.105468 54.34375-112.722656 5.667969-6.816406-3.128906-16.171875-10.28125-10.9375-55.824219 40.851563-102.125 61.5625-137.617187 61.5625-28.328126 0-49.316407-13.425781-62.378907-39.902344-10.195312-20.664062-11.628906-41.84375-11.640625-42.046874-.515625-8.515626-12.605468-9.730469-14.84375-1.535157-15.613281 57.253907-41.421875 86.285157-76.710937 86.285157-55.996094 0-118.378907-70.203126-119-70.910157-2.722657-3.097656-7.421875-3.445312-10.566407-.78125-3.144531 2.664063-3.578124 7.355469-.976562 10.550781 20.984375 25.726563 31.621094 50.023438 31.621094 72.214844 0 63.179688-87.210938 93.160156-88.085938 93.453125-6.171875 2.058594-7.023437 10.472657-1.378906 13.722657 44.265625 25.496093 66.710938 55.414062 66.710938 88.921874zm0 0"/><path d="m506.011719 239.0625c-26.273438-5.472656-43.269531-16.445312-50.519531-32.605469-1.707032-3.808593-6.179688-5.515625-9.992188-3.804687-3.808594 1.707031-5.511719 6.179687-3.804688 9.992187 6.746094 15.042969 19.359376 26.453125 37.621094 34.085938-24.761718 11.976562-39.839844 33.300781-39.839844 62.625 0 20.019531 7.046876 43.371093 20.988282 69.644531-77.359375-34.183594-149.578125-14.003906-193.09375 71.867188-21.144532-57.210938-62.035156-105.945313-123.292969-100.785157-4.164063.351563-7.25 4.007813-6.902344 8.171875.351563 4.160156 4.011719 7.253906 8.171875 6.898438 39.445313-3.328125 68.492188 19.054687 89.492188 52.980468 16.882812 27.269532 23.824218 55.074219 23.890625 55.347657 1.722656 7.066406 11.496093 7.828125 14.3125 1.144531 26.855469-63.746094 66.738281-96.070312 118.539062-96.070312 45.546875 0 84.304688 25.648437 84.683594 25.90625 6.773437 4.558593 15.007813-3.460938 10.59375-10.351563-21.40625-33.425781-32.261719-61.941406-32.261719-84.753906 0-47.59375 48.839844-55.105469 50.902344-55.398438 8.371094-1.152343 8.78125-13.171875.511719-14.894531zm0 0"/><path d="m95.925781 22.886719c28.03125-.769531 51.382813 8.417969 69.359375 27.296875 13.566406 14.25 18.949219 29.046875 19.070313 29.378906 1.089843 3.113281 4.011719 5.0625 7.136719 5.0625 5.195312 0 8.847656-5.136719 7.140624-10.046875-.25-.710937-6.253906-17.648437-21.921874-34.316406-14.511719-15.441407-40.371094-33.609375-81.199219-32.492188-4.171875.113281-7.464844 3.589844-7.351563 7.765625.117188 4.175782 3.574219 7.460938 7.765625 7.351563zm0 0"/><path d="m394.773438 76.195312c30.804687 5.664063 58.140624-4.675781 79.488281-28.324218 16-17.726563 23.179687-36.882813 23.476562-37.691406 1.445313-3.917969-.558593-8.265626-4.476562-9.710938s-8.265625.558594-9.710938 4.476562c-.25.675782-25.65625 67.472657-86.042969 56.375-4.105468-.753906-8.046874 1.964844-8.800781 6.070313-.757812 4.109375 1.960938 8.050781 6.066407 8.804687zm0 0"/><path d="m496.171875 470.617188c-37.378906-.589844-68.449219-10.949219-92.351563-30.78125-17.777343-14.75-24.769531-29.574219-24.882812-29.816407-1.730469-3.789062-6.199219-5.46875-9.996094-3.75-3.804687 1.722657-5.492187 6.199219-3.773437 10.003907.324219.714843 8.125 17.636718 28.292969 34.613281 18.359374 15.449219 51.035156 34.035156 102.46875 34.851562 4.257812.050781 7.617187-3.324219 7.679687-7.4375.070313-4.175781-3.261719-7.613281-7.4375-7.683593zm0 0"/><path d="m144.257812 400.199219c-3.847656-1.621094-8.277343.1875-9.902343 4.03125-.074219.1875-8.015625 18.746093-25.578125 38.949219-23.261719 26.769531-51.539063 43.652343-84.050782 50.175781-4.09375.824219-6.746093 4.808593-5.921874 8.902343.820312 4.082032 4.789062 6.75 8.902343 5.925782 35.535157-7.132813 67.648438-26.328125 92.855469-55.511719 18.992188-21.980469 27.390625-41.757813 27.738281-42.585937 1.613281-3.847657-.199219-8.269532-4.042969-9.886719zm0 0"/><path d="m225.996094 433.304688-19.851563-2.886719-8.875-17.984375c-4.496093-9.113282-17.496093-9.109375-21.992187 0l-8.878906 17.984375-19.847657 2.886719c-10.191406 1.476562-13.984375 13.910156-6.796875 20.914062l14.363282 14c-3.707032 21.617188-3.570313 20.425781-3.570313 21.878906 0 9.171875 9.804687 15.121094 17.972656 10.820313l17.753907-9.332031c19.199218 10.089843 19.5625 10.75 23.460937 10.75 7.519531 0 13.386719-6.753907 12.085937-14.34375l-3.390624-19.769532 14.363281-14c7.1875-7.003906 3.394531-19.4375-6.796875-20.917968zm-20.0625 51.53125c-22.34375-11.746094-17.097656-11.683594-39.324219 0 4.238281-24.722657 6-19.707032-12.152344-37.402344 25.042969-3.640625 20.703125-.59375 31.816407-23.113282 11.199218 22.691407 6.964843 19.503907 31.816406 23.113282-18.179688 17.722656-16.390625 12.707031-12.15625 37.402344zm0 0"/><path d="m16.941406 140.78125c-2.707031 15.773438-2.628906 15.003906-2.628906 16.289062 0 8.355469 8.925781 13.808594 16.402344 9.878907l12.90625-6.785157c13.765625 7.238282 14.566406 8.078126 18.113281 8.078126 6.886719 0 12.21875-6.195313 11.03125-13.089844l-2.464844-14.371094c10.4375-10.175781 13.824219-12.128906 13.824219-18.171875 0-5.621094-4.03125-10.289063-9.585938-11.097656l-14.429687-2.09375-6.453125-13.078125c-4.105469-8.316406-15.96875-8.3125-20.070312 0l-6.453126 13.078125-14.433593 2.09375c-9.320313 1.359375-12.7421878 12.710937-6.199219 19.089843zm26.679688-30.605469c6.988281 14.15625 5.8125 12.96875 20.863281 15.15625-11.296875 11.011719-10.546875 9.492188-7.96875 24.527344-13.789063-7.25-12.1875-7.148437-25.789063 0 2.566407-14.976563 3.386719-13.453125-7.96875-24.527344 15.464844-2.246093 14.035157-1.320312 20.863282-15.15625zm0 0"/><path d="m314.015625 63.976562c-2.699219 15.746094-2.628906 15.003907-2.628906 16.292969 0 6.160157 5.019531 11.171875 11.191406 11.171875 3.558594 0 4.371094-.851562 18.117187-8.078125 13.78125 7.242188 14.570313 8.078125 18.113282 8.078125 6.886718 0 12.21875-6.199218 11.03125-13.089844l-2.464844-14.375c10.4375-10.171874 13.824219-12.125 13.824219-18.167968 0-5.625-4.03125-10.289063-9.585938-11.097656l-14.429687-2.097657c-.050782-.101562-6.453125-13.078125-6.453125-13.078125-4.105469-8.3125-15.96875-8.308594-20.070313.003906l-6.453125 13.074219-14.429687 2.097657c-9.324219 1.351562-12.753906 12.710937-6.207032 19.089843zm26.679687-30.605468c6.730469 13.640625 5.203126 12.882812 20.863282 15.160156-11.515625 11.226562-10.523438 9.632812-7.96875 24.527344-13.789063-7.25-12.195313-7.148438-25.789063 0 2.535157-14.800782 3.578125-13.269532-7.972656-24.527344 15.082031-2.191406 13.878906-1 20.867187-15.160156zm0 0"/><path d="m151.589844 223.40625c0-23.53125-17.636719-26.25-30.898438-26.25h-22.40625c-4.128906 0-7.125 2.707031-7.125 6.4375v93.046875c0 3.671875 3.0625 6.4375 7.125 6.4375h25.683594c19.394531 0 30.078125-11.066406 30.078125-31.167969 0-10.785156-1.445313-20.0625-11.042969-26.230468 5.457032-4.699219 8.585938-12.628907 8.585938-22.273438zm-45.5-11.867188c17.863281 0 30.433594-2.277343 30.433594 12.824219 0 17.132813-10.847657 14.601563-30.433594 14.601563zm16.789062 77.160157h-16.789062v-35.898438c22.585937 0 32.890625-2.910156 32.890625 18.699219 0 11.734375-5.117188 17.199219-16.101563 17.199219zm0 0"/><path d="m164.9375 229.28125v42.355469c0 20.503906 11.460938 32.261719 31.445312 32.261719 19.980469 0 31.441407-11.757813 31.441407-32.261719v-42.355469c0-20.417969-11.460938-32.125-31.441407-32.125-19.984374 0-31.445312 11.707031-31.445312 32.125zm47.824219 0v42.355469c0 12.03125-5.359375 17.878906-16.378907 17.878906-11.019531 0-16.375-5.847656-16.375-17.878906v-42.355469c0-11.9375 5.355469-17.742188 16.375-17.742188 11.019532 0 16.378907 5.804688 16.378907 17.742188zm0 0"/><path d="m273.167969 197.15625c-19.984375 0-31.445313 11.707031-31.445313 32.125v42.355469c0 20.503906 11.460938 32.265625 31.445313 32.265625 19.980469 0 31.441406-11.761719 31.441406-32.265625v-42.355469c0-20.417969-11.460937-32.125-31.441406-32.125zm16.375 74.480469c0 12.03125-5.355469 17.878906-16.375 17.878906s-16.378907-5.847656-16.378907-17.878906v-42.355469c0-11.9375 5.359376-17.742188 16.378907-17.742188s16.375 5.800782 16.375 17.742188zm0 0"/><path d="m388.617188 303.082031c4.363281 0 7.53125-2.769531 7.53125-6.578125v-91.953125c0-4.492187-2.957032-7.394531-7.53125-7.394531-5.808594 0-8.800782 5.75-9.925782 7.917969l-20.816406 40.175781-20.816406-40.179688c-1.125-2.164062-4.117188-7.914062-9.925782-7.914062-4.578124 0-7.535156 2.902344-7.535156 7.394531v91.953125c0 8.792969 15.066406 8.71875 15.066406 0v-64.835937l16.851563 32.375c3.390625 6.355469 9.601563 5.585937 12.578125 0l16.988281-32.132813v64.59375c0 3.75 3.238281 6.578125 7.535157 6.578125zm0 0"/><path d="m418.945312 303.898438c4.972657 0 9.175782-4.261719 9.175782-9.308594 0-5.207032-4.117188-9.445313-9.175782-9.445313-5.21875 0-9.308593 4.148438-9.308593 9.445313 0 5.132812 4.179687 9.308594 9.308593 9.308594zm0 0"/><path d="m418.878906 276.175781c4.175782 0 7.5625-3.382812 7.5625-7.558593v-62.839844c0-4.175782-3.386718-7.5625-7.5625-7.5625-4.175781 0-7.5625 3.386718-7.5625 7.5625v62.839844c0 4.175781 3.386719 7.558593 7.5625 7.558593zm0 0"/></svg>